<svg width="1025" height="764" viewBox="0 0 1025 764" fill="none" xmlns="http://www.w3.org/2000/svg">
<g clip-path="url(#clip0_1424_847)">
<rect width="1025" height="764" rx="382" fill="url(#paint0_linear_1424_847)"/>
<g opacity="0.4">
<path d="M70 4.75V758.25" stroke="white"/>
<path d="M137 -0.5L138.005 763.5" stroke="white"/>
<path d="M205.005 -0.5L206.011 763.5" stroke="white"/>
<path d="M273.01 -0.5L274.016 763.5" stroke="white"/>
<path d="M341.016 -0.5L342.021 763.5" stroke="white"/>
<path d="M409.021 -0.5L410.026 763.5" stroke="white"/>
<path d="M477.026 -0.5L478.032 763.5" stroke="white"/>
<path d="M545.031 -0.5L546.037 763.5" stroke="white"/>
<path d="M613.037 -0.5L614.042 763.5" stroke="white"/>
<path d="M681.042 -0.5L682.047 763.5" stroke="white"/>
<path d="M749.047 -0.5L750.053 763.5" stroke="white"/>
<path d="M817.052 -0.5L818.058 763.5" stroke="white"/>
<path d="M885.058 -0.5L886.063 763.5" stroke="white"/>
<path d="M953.063 -0.5L954.068 763.5" stroke="white"/>
</g>
<g opacity="0.4">
<path d="M0.000488281 697.605L1025 696.257" stroke="white"/>
<path d="M0.000488281 629.257L1025 627.908" stroke="white"/>
<path d="M0.000488281 560.908L1025 559.559" stroke="white"/>
<path d="M0.000488281 492.559L1025 491.21" stroke="white"/>
<path d="M0.000488281 424.21L1025 422.862" stroke="white"/>
<path d="M0.000488281 355.862L1025 354.513" stroke="white"/>
<path d="M0.000488281 287.513L1025 286.165" stroke="white"/>
<path d="M0.000488281 219.164L1025 217.816" stroke="white"/>
<path d="M0.000488281 150.99L1025 149.641" stroke="white"/>
<path d="M0.000488281 82.8157L1025 81.467" stroke="white"/>
</g>
<rect opacity="0.8" x="-37" width="1062" height="763" fill="url(#paint1_linear_1424_847)"/>
</g>
<defs>
<linearGradient id="paint0_linear_1424_847" x1="512.5" y1="0" x2="512.5" y2="764" gradientUnits="userSpaceOnUse">
<stop offset="0.22" stop-color="#E0E8F6" stop-opacity="0"/>
<stop offset="1" stop-color="#E0E8F6"/>
</linearGradient>
<linearGradient id="paint1_linear_1424_847" x1="494" y1="0" x2="494" y2="763" gradientUnits="userSpaceOnUse">
<stop stop-color="#E0E8F6" stop-opacity="0"/>
<stop offset="1" stop-color="#E0E8F6"/>
</linearGradient>
<clipPath id="clip0_1424_847">
<rect width="1025" height="764" rx="382" fill="white"/>
</clipPath>
</defs>
</svg>
